<svg xmlns="http://www.w3.org/2000/svg" width="1280" height="720" viewBox="0 0 1280 720" role="img" aria-labelledby="title desc">
  <title id="title">AI Visual similarity screenshot</title>
  <desc id="desc">A stylized Cove visual similarity screen with image cards, scores, and a selected reference image.</desc>
  <rect width="1280" height="720" fill="#111827" />
  <rect x="40" y="40" width="1200" height="640" rx="18" fill="#0b1220" stroke="#334155" stroke-width="2" />
  <g font-family="Segoe UI, Arial, sans-serif">
    <text x="84" y="104" fill="#f8fafc" font-size="36" font-weight="700">Visual Similarity</text>
    <text x="84" y="142" fill="#94a3b8" font-size="20">Compare embeddings and region evidence for related media.</text>
    <rect x="84" y="188" width="332" height="404" rx="14" fill="#172033" stroke="#334155" />
    <rect x="112" y="216" width="276" height="184" rx="10" fill="#1e293b" />
    <circle cx="198" cy="296" r="54" fill="#38bdf8" opacity="0.82" />
    <rect x="248" y="260" width="88" height="96" rx="12" fill="#22c55e" opacity="0.78" />
    <text x="112" y="446" fill="#e2e8f0" font-size="24" font-weight="700">Reference media</text>
    <text x="112" y="480" fill="#94a3b8" font-size="18">Embedding ready</text>
    <rect x="112" y="520" width="148" height="40" rx="20" fill="#2563eb" />
    <text x="139" y="546" fill="#eff6ff" font-size="17" font-weight="700">Find similar</text>
    <g transform="translate(468 188)">
      <rect width="664" height="404" rx="14" fill="#111827" stroke="#334155" />
      <g transform="translate(28 28)">
        <rect width="176" height="142" rx="10" fill="#172033" />
        <rect x="18" y="18" width="140" height="78" rx="8" fill="#334155" />
        <text x="18" y="124" fill="#cbd5e1" font-size="17" font-weight="700">Match 0.93</text>
      </g>
      <g transform="translate(244 28)">
        <rect width="176" height="142" rx="10" fill="#172033" />
        <rect x="18" y="18" width="140" height="78" rx="8" fill="#475569" />
        <text x="18" y="124" fill="#cbd5e1" font-size="17" font-weight="700">Match 0.88</text>
      </g>
      <g transform="translate(460 28)">
        <rect width="176" height="142" rx="10" fill="#172033" />
        <rect x="18" y="18" width="140" height="78" rx="8" fill="#334155" />
        <text x="18" y="124" fill="#cbd5e1" font-size="17" font-weight="700">Match 0.84</text>
      </g>
      <g transform="translate(28 214)">
        <rect width="176" height="142" rx="10" fill="#172033" />
        <rect x="18" y="18" width="140" height="78" rx="8" fill="#475569" />
        <text x="18" y="124" fill="#cbd5e1" font-size="17" font-weight="700">Region 0.81</text>
      </g>
      <g transform="translate(244 214)">
        <rect width="176" height="142" rx="10" fill="#172033" />
        <rect x="18" y="18" width="140" height="78" rx="8" fill="#334155" />
        <text x="18" y="124" fill="#cbd5e1" font-size="17" font-weight="700">Region 0.79</text>
      </g>
      <g transform="translate(460 214)">
        <rect width="176" height="142" rx="10" fill="#172033" />
        <rect x="18" y="18" width="140" height="78" rx="8" fill="#475569" />
        <text x="18" y="124" fill="#cbd5e1" font-size="17" font-weight="700">Region 0.76</text>
      </g>
    </g>
  </g>
</svg>
